<svg id="bd8335ca-6806-4b92-91c7-053e3b0e7b46" data-name="Layer 1" xmlns="http://www.w3.org/2000/svg" viewBox="0 0 50 50"><path d="M25.09,12.4a11.92,11.92,0,0,0-1.22,23.77l.19.32,1.18,2.74,1.18-2.74.2-.35A11.92,11.92,0,0,0,25.09,12.4Zm.12,19.43A1.79,1.79,0,1,1,27,30.05,1.78,1.78,0,0,1,25.21,31.83Zm1.25-5.26H24l-.72-10.16h3.9Z" style="fill:#606161"/><path d="M48.74,22v4.59a3.43,3.43,0,0,1-3.43,3.42H43.87a19.68,19.68,0,0,1-16.8,13.8A2.07,2.07,0,1,1,27,42.44,18.25,18.25,0,0,0,42.39,30.05h-1V18.62h1a18.23,18.23,0,0,0-34.63,0h.83V30.05H4.68a3.42,3.42,0,0,1-3.42-3.42V22a3.42,3.42,0,0,1,3.42-3.42H6.3a19.63,19.63,0,0,1,37.58,0h1.43A3.43,3.43,0,0,1,48.74,22Z" style="fill:#606161"/></svg>