<svg id="f2be4920-5e7a-43df-9e94-96e7a5cd6469" data-name="Layer 1" xmlns="http://www.w3.org/2000/svg" viewBox="0 0 50 50"><path d="M2.79,21.91H2.64V24H4.32V21.92Zm0,9.44H2.64v2.1H4.32V31.37Zm0-4.72H2.64v2.09H2.8l1.52,0V26.65Zm0-9.45H2.64v2.1H4.32V17.2Zm7-15.39A7.2,7.2,0,0,0,2.64,9v5.56l.16,0,1.52,0V9A5.51,5.51,0,0,1,9.83,3.48H24.48a14.59,14.59,0,0,1,2.14-1.69ZM39,28V41.66a5.52,5.52,0,0,1-5.5,5.51H9.83a5.52,5.52,0,0,1-5.51-5.51V36.09H2.79l-.15,0v5.6a7.2,7.2,0,0,0,7.19,7.19H33.52a7.2,7.2,0,0,0,7.19-7.19V27.31A15.59,15.59,0,0,1,39,28Z" style="fill:#606161"/><path d="M10.64,11.7h9.48a12,12,0,0,0-.18,1.69h-9.3Z" style="fill:#606161"/><path d="M20.06,16a13.62,13.62,0,0,0,.32,1.69H10.64V16Z" style="fill:#606161"/><path d="M21.36,20.38a13.92,13.92,0,0,0,.95,1.68H10.64V20.38Z" style="fill:#606161"/><path d="M24.53,24.71A14.85,14.85,0,0,0,26.7,26.4H10.64V24.71Z" style="fill:#606161"/><path d="M32.7,25.16a10.55,10.55,0,0,1-1.78-.45Z" style="fill:#606161"/><rect x="10.64" y="29.05" width="22.06" height="1.69" style="fill:#606161"/><rect x="10.64" y="33.38" width="22.06" height="1.69" style="fill:#606161"/><rect x="10.64" y="37.72" width="22.06" height="1.69" style="fill:#606161"/><path d="M8.45,15.9a1.45,1.45,0,0,1-2.64.83H4.32l-1.53,0H2.64a.82.82,0,0,1-.65-.8v-.08A.82.82,0,0,1,2.64,15H4.32l1.51,0a1.45,1.45,0,0,1,2.62.85Z" style="fill:#606161"/><path d="M8.45,20.63a1.45,1.45,0,0,1-2.64.83l-1.49,0H2.79l-.15,0a.82.82,0,0,1-.65-.8v-.07a.8.8,0,0,1,.65-.78.47.47,0,0,1,.17,0l1.51,0H5.83a1.45,1.45,0,0,1,2.62.86Z" style="fill:#606161"/><path d="M8.45,25.35a1.45,1.45,0,0,1-2.64.83l-1.49,0H2.79l-.15,0a.82.82,0,0,1-.65-.8v-.07a.8.8,0,0,1,.65-.78l.17,0,1.51,0H5.83a1.45,1.45,0,0,1,2.62.86Z" style="fill:#606161"/><path d="M8.45,30.07a1.45,1.45,0,0,1-2.64.83H4.32l-1.53,0-.15,0A.81.81,0,0,1,2,30.06V30a.81.81,0,0,1,.65-.78l.17,0,1.51,0,1.51,0A1.42,1.42,0,0,1,7,28.62,1.45,1.45,0,0,1,8.45,30.07Z" style="fill:#606161"/><path d="M8.45,34.79a1.45,1.45,0,0,1-2.64.83H4.32l-1.53,0H2.64a.82.82,0,0,1-.65-.8V34.7a.82.82,0,0,1,.65-.78H4.32l1.51,0a1.45,1.45,0,0,1,2.62.85Z" style="fill:#606161"/><path d="M30.92,24.71a10.55,10.55,0,0,0,1.78.45Z" style="fill:#606161"/><path d="M47.45,14.07a12.92,12.92,0,0,1-6.74,11.34,12.36,12.36,0,0,1-1.69.78,12.86,12.86,0,0,1-4.49.8,13.11,13.11,0,0,1-3.88-.59,12.52,12.52,0,0,1-3.44-1.69,13.18,13.18,0,0,1-2.83-2.65,13,13,0,0,1-2.24-4.33A11.83,11.83,0,0,1,21.76,16a12.78,12.78,0,0,1-.15-2c0-.23,0-.45,0-.68a12,12,0,0,1,.2-1.69,12.9,12.9,0,0,1,5.3-8.22,12.76,12.76,0,0,1,7.4-2.33A12.83,12.83,0,0,1,43,4.32l-1.07,1.3A11.21,11.21,0,0,0,30.77,3.48a11.26,11.26,0,0,0-7.22,8.22,10.42,10.42,0,0,0-.23,1.69c0,.22,0,.45,0,.68a10.69,10.69,0,0,0,.18,2,12,12,0,0,0,.43,1.69,11.38,11.38,0,0,0,1.34,2.65,11.3,11.3,0,0,0,5.68,4.33,10.55,10.55,0,0,0,1.78.45A11.21,11.21,0,0,0,39,24.37a11.48,11.48,0,0,0,1.69-.92,11.25,11.25,0,0,0,5.06-9.38,10.83,10.83,0,0,0-.17-1.9L47,10.52A12.64,12.64,0,0,1,47.45,14.07Z" style="fill:#606161"/><polygon points="48.01 6.57 47.45 7.25 46.27 8.68 45.06 10.16 43.79 11.72 40.71 15.49 39.02 17.55 35.4 21.98 31.7 17.73 30.23 16.04 29.55 15.25 31.7 13.39 32.28 12.88 32.7 13.37 35.31 16.37 39.02 11.84 40.71 9.78 42.03 8.16 43.12 6.84 44.2 5.51 45.21 4.28 45.73 4.71 45.73 4.71 48.01 6.57" style="fill:#606161"/></svg>