<svg id="bf4266db-dcec-4a4b-b7cd-0fa832792788" data-name="Layer 1" xmlns="http://www.w3.org/2000/svg" viewBox="0 0 50 50"><path d="M49.36,22v4.7a3.51,3.51,0,0,1-3.51,3.51H44.37A20.22,20.22,0,0,1,27.13,44.35a2.12,2.12,0,1,1-.07-1.45A18.75,18.75,0,0,0,42.85,30.18h-1V18.46h1a18.7,18.7,0,0,0-35.53,0h.86V30.18h-4A3.51,3.51,0,0,1,.64,26.67V22a3.52,3.52,0,0,1,3.51-3.52H5.81a20.15,20.15,0,0,1,38.57,0h1.47A3.51,3.51,0,0,1,49.36,22Z" style="fill:#606161"/><path d="M25.09,12.07a12.23,12.23,0,0,0-1.25,24.4l.19.32,1.21,2.82,1.21-2.82.21-.36a12.23,12.23,0,0,0-1.57-24.36Zm-1.84,4.12,0,0v0ZM20.4,26.8a2,2,0,1,1,2.05-2.05A2,2,0,0,1,20.4,26.8Zm4.69,0a2,2,0,1,1,2.05-2.05A2,2,0,0,1,25.09,26.8Zm4.7,0a2,2,0,1,1,2.05-2.05A2,2,0,0,1,29.79,26.8Z" style="fill:#606161"/></svg>