<svg id="b2915958-a240-4f36-a020-257a1011155d" data-name="Layer 1" xmlns="http://www.w3.org/2000/svg" viewBox="0 0 50 50"><path d="M16.58,18A7.06,7.06,0,1,0,23.63,25,7.06,7.06,0,0,0,16.58,18Zm0,12.3A5.25,5.25,0,1,1,21.82,25,5.26,5.26,0,0,1,16.58,30.25Z" style="fill:#606161"/><polygon points="42.09 28.13 42.09 26.91 32.79 26.91 32.81 22.45 42.07 22.45 42.07 21.25 48.55 24.91 42.09 28.13" style="fill:#606161"/><path d="M36.82,36.81V35.59h-7l.9-1.24c.3-.42.61-.83.87-1.28a7.52,7.52,0,0,0,.64-1.45c.06-.16.11-.33.17-.49h4.39V29.94l6.48,3.66Z" style="fill:#606161"/><path d="M31.71,26.74V23.65H29.64c0-.34-.09-.68-.15-1l2-.65L30.55,19l-2,.64a8.09,8.09,0,0,0-.4-.84l-.05-.1,1.7-1.23L28,15l-1,.72-.65.47c-.23-.26-.47-.52-.72-.76l1.21-1.67L24.38,12l-1.16,1.6c-.31-.19-.62-.35-.94-.51l.62-1.91L20,10.2,19.38,12c-.35-.08-.71-.15-1.07-.2v-2H15.23v1.86c-.37,0-.73.08-1.09.14l-.58-1.79L10.62,11l.55,1.71c-.34.15-.68.31-1,.48L9.09,11.74l-2.5,1.82,1,1.41c-.28.25-.55.51-.81.79l-1.45-1L3.55,17.2l1.38,1a10.78,10.78,0,0,0-.54,1l-1.66-.53-1,2.93,1.6.52c-.08.37-.14.75-.19,1.13H1.45v3.09H3.13c0,.39.1.77.17,1.14L1.66,28l1,2.94,1.61-.52c.16.34.33.69.51,1l-1.41,1L5.13,35l1.41-1c.25.27.52.54.79.8l-1,1.45L8.78,38l1.05-1.44a9.25,9.25,0,0,0,1,.51l-.57,1.75,2.94,1,.56-1.75a9.89,9.89,0,0,0,1.09.17v1.9h3.09v-1.9c.36,0,.72-.09,1.07-.16l.6,1.86,2.94-1-.61-1.86c.33-.15.64-.31.95-.48l1.18,1.63,2.5-1.82-1.18-1.62c.26-.24.5-.48.74-.74l1.39,1,.29.21,1.81-2.5L28,31.6l.25-.47c.08-.15.15-.3.22-.45l1.39.45.61.2.06-.2.89-2.74-2-.64c.07-.33.13-.67.17-1ZM16.38,36.35A11.35,11.35,0,1,1,27.73,25,11.36,11.36,0,0,1,16.38,36.35Z" style="fill:#606161"/><path d="M36.32,20.06V18.84H32.39c-.06,0-.2-.57-.22-.64-.08-.24-.18-.47-.28-.7a14,14,0,0,0-1.39-2.16l-.7-1h6.49V13.19l6.48,3.66Z" style="fill:#606161"/></svg>