<svg id="aa2fbb55-f2db-42ab-9dd6-e1ad1efadc1b" data-name="Layer 1" xmlns="http://www.w3.org/2000/svg" viewBox="0 0 50 50"><path d="M18,36.2l-.16.08.32-.16Zm15.82-5.33c0,.16,0,.31,0,.47a9.56,9.56,0,0,0,.4-2.74v-.05A6.58,6.58,0,0,0,33.78,30.87ZM44.92,16.19a20.53,20.53,0,0,0-2.53-5.76c-2.35,2-5.62,2.15-7.48.24s-1.66-4.93.21-7.21a21,21,0,0,0-5.86-2.28c-.23,3.09-2.45,5.5-5.12,5.47S19.48,4.33,19.19,1.4a20.65,20.65,0,0,0-5.76,2.53c2,2.35,2.16,5.63.25,7.48s-4.94,1.66-7.21-.21a20.53,20.53,0,0,0-2.28,5.86c3.08.24,5.49,2.45,5.46,5.12a3.83,3.83,0,0,1-.12,1l.55,0a7.72,7.72,0,0,1,6.3,3.32c.08-.34.18-.68.29-1a8.68,8.68,0,0,1-.84-3.88,8.84,8.84,0,1,1,17.3,2.64,9.61,9.61,0,0,1,.65,1.62,7.72,7.72,0,0,1,6.14-3.09h0a4.42,4.42,0,0,1-.28-1.58C39.71,18.57,42,16.48,44.92,16.19ZM35.47,39.62v0s0,0,0,0ZM18,36.2l-.16.08.32-.16Zm0,0-.16.08.32-.16Z" style="fill:#606161"/><path d="M33.78,30.87c0,.16,0,.31,0,.47a9.56,9.56,0,0,0,.4-2.74v-.05A6.58,6.58,0,0,0,33.78,30.87Z" style="fill:#606161"/><polygon points="15.68 35.67 15.68 35.66 15.68 35.66 15.68 35.67" style="fill:#606161"/><path d="M18.12,36.12l-.32.16L18,36.2Z" style="fill:#606161"/><path d="M35.5,39.62s0,0,0,0v0Z" style="fill:#606161"/><path d="M18.12,36.12l-.32.16L18,36.2Z" style="fill:#606161"/><path d="M12.8,40h0Z" style="fill:#606161"/><path d="M35.5,39.62s0,0,0,0v0Z" style="fill:#606161"/><rect x="30.39" y="46.84" width="0.78" height="1.98" style="fill:#606161"/><rect x="30.39" y="46.84" width="0.78" height="1.98" style="fill:#606161"/><rect x="19.5" y="41.07" width="0.77" height="7.75" style="fill:#606161"/><path d="M33.78,30.87c0,.16,0,.31,0,.47a9.56,9.56,0,0,0,.4-2.74v-.05A6.58,6.58,0,0,0,33.78,30.87Z" style="fill:#606161"/><path d="M33.78,30.87c0,.16,0,.31,0,.47a9.56,9.56,0,0,0,.4-2.74v-.05A6.58,6.58,0,0,0,33.78,30.87Z" style="fill:#606161"/><path d="M44.92,27.13A6.8,6.8,0,0,0,44,26.08a6.05,6.05,0,0,0-2.87-1.54,6.38,6.38,0,0,0-1.25-.13,6.16,6.16,0,0,0-5.73,4.14v.05a9.56,9.56,0,0,1-.4,2.74,6.89,6.89,0,0,0,.69,2.53,6.46,6.46,0,0,0,.79,1.21,5.92,5.92,0,0,0,9.29,0,6.55,6.55,0,0,0,1.5-4.21A6.64,6.64,0,0,0,44.92,27.13Zm-1.22,8a5.27,5.27,0,0,1-3.78,1.61,5.34,5.34,0,0,1-3.8-1.62,6,6,0,0,1-1.31-2,6.18,6.18,0,0,1-.39-2.16,5.67,5.67,0,0,1,5.5-5.82A5.45,5.45,0,0,1,44.68,28a6,6,0,0,1,.74,2.91A6,6,0,0,1,43.7,35.08Z" style="fill:#606161"/><rect x="30.39" y="41.06" width="0.78" height="5.78" style="fill:#606161"/><path d="M42.65,39.62l0,0v0Z" style="fill:#606161"/><path d="M48.9,42v2.56h-.64V42a4.64,4.64,0,0,0-3.48-4.49l-.22,0a2.79,2.79,0,0,0-1.64.25l-.19.09a6.52,6.52,0,0,1-5.23.11l-.64-.27a3.38,3.38,0,0,0-.62-.18,2.81,2.81,0,0,0-1,0l-.17,0-.34.1a3.2,3.2,0,0,0-.43.17,6,6,0,0,1,.94,1.44,4.32,4.32,0,0,1,.19.45v0a6.28,6.28,0,0,1,.4,2.21v3.06h-.76V41.85A5.63,5.63,0,0,0,34.81,40c-.05-.13-.1-.27-.16-.4l-.07-.15a5.81,5.81,0,0,0-.93-1.37c-.15-.16-.3-.31-.46-.45a5.41,5.41,0,0,0-1.84-1h0L31,36.48a3.22,3.22,0,0,0-.76-.09,3.46,3.46,0,0,0-1.46.34l-.23.1a7.3,7.3,0,0,1-1.18.44A7.81,7.81,0,0,1,23,37.22h0a6.93,6.93,0,0,1-.72-.26l-.76-.31a3.5,3.5,0,0,0-1.41-.27,3.09,3.09,0,0,0-.68.09,5,5,0,0,0-1.08.39A5.53,5.53,0,0,0,16.75,38a6.26,6.26,0,0,0-.41.49,5.29,5.29,0,0,0-.78,1.44.36.36,0,0,0,0,.09c0,.15-.09.3-.13.45a5.2,5.2,0,0,0-.17,1.37v3.8h-.77v-3.8a6.57,6.57,0,0,1,.24-1.73l0-.09c0-.13.08-.27.13-.39a6.19,6.19,0,0,1,.81-1.5,2.39,2.39,0,0,0-.37-.15L15,37.88l-.23,0a2.66,2.66,0,0,0-.89,0,3.28,3.28,0,0,0-.75.24l-.19.09a6.56,6.56,0,0,1-5.23.11L7,38a2.88,2.88,0,0,0-1.58-.18l-.17,0a4.63,4.63,0,0,0-3.53,4.51v3.18H1.1V42.38a5.26,5.26,0,0,1,3.73-5.05l.29-.08a3.48,3.48,0,0,1,2.15.18l.63.27a5.92,5.92,0,0,0,4.72-.11l.19-.08a3.46,3.46,0,0,1,1.46-.34h0a2.59,2.59,0,0,1,.83.1l.23.06.16.05a5.89,5.89,0,0,1,.58.24,6.3,6.3,0,0,1,1.44-1.18,2.69,2.69,0,0,1,.29-.16l.32-.16a2.18,2.18,0,0,1,.27-.11l.29-.11a4.75,4.75,0,0,1,.57-.18h0a4.14,4.14,0,0,1,2.52.22l.76.32a6.74,6.74,0,0,0,1.8.47h0a6.5,6.5,0,0,0,1.59,0h0a6.73,6.73,0,0,0,2.23-.61l.23-.11a4.14,4.14,0,0,1,2.62-.31l.11,0a7.67,7.67,0,0,1,1.11.4,6.59,6.59,0,0,1,1.6,1.1,4.43,4.43,0,0,1,.68-.28l.12,0,.29-.08a3.25,3.25,0,0,1,.77-.09h0a3.72,3.72,0,0,1,1.38.27l.63.27a5.91,5.91,0,0,0,4.72-.1l.19-.09a3.4,3.4,0,0,1,2.29-.24l.22.06h0A5.3,5.3,0,0,1,48.9,42Z" style="fill:#606161"/><path d="M42.6,39.62h0l0,0Z" style="fill:#606161"/><rect x="44.3" y="41.31" width="0.65" height="6.5" style="fill:#606161"/><rect x="44.3" y="41.31" width="0.65" height="6.5" style="fill:#606161"/><path d="M5.55,26.92a5.93,5.93,0,0,0,3-1.91A6.09,6.09,0,0,0,5.55,26.92Zm10.13,8.74h0Z" style="fill:#606161"/><path d="M5.55,26.92a5.93,5.93,0,0,0,3-1.91A6.09,6.09,0,0,0,5.55,26.92Z" style="fill:#606161"/><path d="M10.08,24.82a5.77,5.77,0,0,0-1.5.19,5.93,5.93,0,0,1-3,1.91,6.21,6.21,0,0,0-.84,1.23,6.71,6.71,0,0,0,.72,7.34,6.05,6.05,0,0,0,10-1.1,6.74,6.74,0,0,0,.76-3.11A6.31,6.31,0,0,0,10.08,24.82Zm5,8.78a5.85,5.85,0,0,1-1.26,1.89,5.25,5.25,0,0,1-7.58,0h0A6.06,6.06,0,0,1,5,29a5.5,5.5,0,0,1,5.07-3.57,5.67,5.67,0,0,1,5.5,5.82A6,6,0,0,1,15.12,33.6Z" style="fill:#606161"/><path d="M20.15,23.37a6.45,6.45,0,0,0,3.3-2.22A6.62,6.62,0,0,0,20.15,23.37Zm11,10.14h0Z" style="fill:#606161"/><path d="M20.15,23.37a6.45,6.45,0,0,0,3.3-2.22A6.62,6.62,0,0,0,20.15,23.37Z" style="fill:#606161"/><path d="M25.08,20.93a6.34,6.34,0,0,0-1.63.22,6.45,6.45,0,0,1-3.3,2.22,7.32,7.32,0,0,0-.93,1.43,8.17,8.17,0,0,0-.83,3.62A8,8,0,0,0,20,33.3a6.24,6.24,0,0,0,10.14,0A6.72,6.72,0,0,0,31,32a8.12,8.12,0,0,0,.83-3.61C31.78,24.29,28.78,20.93,25.08,20.93Zm5.5,10.18a6.6,6.6,0,0,1-1.37,2.2,5.52,5.52,0,0,1-8.27,0h0a7.16,7.16,0,0,1-1.85-4.87,7.46,7.46,0,0,1,.46-2.61,6.05,6.05,0,0,1,5.53-4.14c3.31,0,6,3,6,6.75A7.19,7.19,0,0,1,30.58,31.11Z" style="fill:#606161"/><path d="M12.8,40h0Z" style="fill:#606161"/><rect x="5.33" y="41.72" width="0.65" height="6.5" style="fill:#606161"/><rect x="5.33" y="41.72" width="0.65" height="6.5" style="fill:#606161"/></svg>