<svg id="e5398ae7-d8cb-4322-b150-d85f14dfab13" data-name="Layer 1" xmlns="http://www.w3.org/2000/svg" viewBox="0 0 50 50"><path d="M32.62,41.8h-1l-.41-5.52a.52.52,0,0,1,.51-.56h.78a.52.52,0,0,1,.51.56Z" style="fill:#606161"/><circle cx="32.13" cy="43.15" r="0.94" style="fill:#606161"/><path d="M43.19,20.4a17.84,17.84,0,0,0-1.83-7.06l2-1a20.09,20.09,0,0,1,2.06,7.93Z" style="fill:#606161"/><path d="M39.48,6.89,37.89,8.48c-.31-.31-.63-.6-1-.89A18.2,18.2,0,1,0,20.52,39c0,.25,0,.49,0,.73a9.06,9.06,0,0,0,.06,1.09c0,.18,0,.35.05.52A20.45,20.45,0,1,1,38.54,6C38.86,6.29,39.17,6.58,39.48,6.89Z" style="fill:#606161"/><path d="M43.3,30.53l-2-1a18.05,18.05,0,0,0,1.78-5.85l2.24.29A20.34,20.34,0,0,1,43.3,30.53Z" style="fill:#606161"/><path d="M40.24,35v0a9.16,9.16,0,0,0-1.36-1.8l0,0a9.37,9.37,0,0,0-16,5.14,9.2,9.2,0,0,0-.11,1.39,8.85,8.85,0,0,0,.05.89,9.38,9.38,0,0,0,18.71-.89A9.19,9.19,0,0,0,40.24,35ZM32.13,46.85a7.14,7.14,0,0,1-7-6A6.74,6.74,0,0,1,25,39.72a8.62,8.62,0,0,1,.09-1.14,7.13,7.13,0,0,1,12.1-3.87,7.25,7.25,0,0,1,2.07,5A7.14,7.14,0,0,1,32.13,46.85Z" style="fill:#606161"/><path d="M33.39,9.1h0a1.13,1.13,0,0,1,1-1.24l4.15-.44V3.15A1.12,1.12,0,0,1,39.66,2h0a1.12,1.12,0,0,1,1.13,1.12V7.91A1.69,1.69,0,0,1,39.28,9.6l-4.65.5A1.12,1.12,0,0,1,33.39,9.1Z" style="fill:#606161"/><path d="M30.17,25.94l-6.23-4V11a1.13,1.13,0,0,1,1.12-1.13h0A1.14,1.14,0,0,1,26.19,11v9.74l5.19,3.31a1.13,1.13,0,0,1,.34,1.55h0A1.12,1.12,0,0,1,30.17,25.94Z" style="fill:#606161"/></svg>