<svg id="bf18949e-86e0-403c-8464-e511a7d2b395" data-name="Layer 1" xmlns="http://www.w3.org/2000/svg" viewBox="0 0 50 50"><path d="M3.28,22.63H3.13v2.07H3.3l1.5,0V22.65Zm0,9.34H3.13V34l.17,0,1.5,0V32Zm0-4.67H3.13v2.07H3.3l1.5,0V27.32Zm0-9.34H3.13V20H3.3l1.5,0V18Zm35.84-1.42V42.17a5.45,5.45,0,0,1-5.44,5.44H10.25A5.45,5.45,0,0,1,4.8,42.17V36.66l-1.51,0H3.14v5.54a7.12,7.12,0,0,0,7.11,7.11H33.68a7.12,7.12,0,0,0,7.11-7.11V14.87ZM33.68,2.74H10.25A7.12,7.12,0,0,0,3.14,9.85v5.5H4.8V9.85a5.45,5.45,0,0,1,5.45-5.44H33.68a5.25,5.25,0,0,1,2.21.47l1.24-1.24A7.06,7.06,0,0,0,33.68,2.74Z" style="fill:#606161"/><polygon points="11.06 12.54 28.23 12.54 26.56 14.21 11.06 14.21 11.06 12.54" style="fill:#606161"/><polygon points="23.94 16.83 22.27 18.5 11.06 18.5 11.06 16.83 23.94 16.83" style="fill:#606161"/><polygon points="11.06 21.12 21.41 21.12 20.94 22.78 11.06 22.78 11.06 21.12" style="fill:#606161"/><path d="M20.77,26.77a1.93,1.93,0,0,0,.27.3h-10V25.4H20.3A2.23,2.23,0,0,0,20.77,26.77Z" style="fill:#606161"/><rect x="11.06" y="29.69" width="21.81" height="1.67" style="fill:#606161"/><rect x="11.06" y="33.98" width="21.81" height="1.67" style="fill:#606161"/><rect x="11.06" y="38.27" width="21.81" height="1.67" style="fill:#606161"/><path d="M8.89,16.69a1.43,1.43,0,0,1-2.61.82H4.8l-1.51,0H3.13a.81.81,0,0,1-.63-.79V16.6a.81.81,0,0,1,.63-.77H4.8l1.5,0a1.42,1.42,0,0,1,1.15-.59A1.44,1.44,0,0,1,8.89,16.69Z" style="fill:#606161"/><path d="M8.89,21.36a1.44,1.44,0,0,1-2.61.83l-1.48,0H3.29l-.16,0a.81.81,0,0,1-.63-.79v-.07a.82.82,0,0,1,.63-.78H4.8l1.5,0a1.42,1.42,0,0,1,1.15-.59A1.44,1.44,0,0,1,8.89,21.36Z" style="fill:#606161"/><path d="M8.89,26a1.45,1.45,0,0,1-1.44,1.44,1.43,1.43,0,0,1-1.17-.61l-1.48,0-1.51,0H3.13A.81.81,0,0,1,2.5,26V26a.82.82,0,0,1,.63-.78H4.8l1.5,0a1.42,1.42,0,0,1,1.15-.59A1.44,1.44,0,0,1,8.89,26Z" style="fill:#606161"/><path d="M8.89,30.71a1.44,1.44,0,0,1-2.61.82l-1.48,0H3.29l-.16,0a.81.81,0,0,1-.63-.79v-.07a.8.8,0,0,1,.63-.77.55.55,0,0,1,.18,0l1.49,0H6.3a1.42,1.42,0,0,1,1.15-.59A1.44,1.44,0,0,1,8.89,30.71Z" style="fill:#606161"/><path d="M8.89,35.38a1.44,1.44,0,0,1-2.61.82l-1.48,0H3.29l-.16,0a.8.8,0,0,1-.63-.79v-.07a.8.8,0,0,1,.63-.77l.18,0,1.49,0H6.3a1.42,1.42,0,0,1,1.15-.59A1.45,1.45,0,0,1,8.89,35.38Z" style="fill:#606161"/><path d="M46.55,6.76l-5.76,5.75-1.67,1.67-6.93,6.94-2.37,2.36-2.36-2.36L24.83,18.5l-.1-.1L41.46,1.67a3.23,3.23,0,0,1,4.58,0l.51.51A3.23,3.23,0,0,1,46.55,6.76Z" style="fill:#606161"/><line x1="27.94" y1="24.8" x2="25.37" y2="25.4" style="fill:#606161"/><path d="M28.62,24.64l-.68.16-2.57.6-.22.06L22.78,26A.66.66,0,0,1,22,25.4a.57.57,0,0,1,0-.22l.64-2.24,0-.16.47-1.66.25-.87.19-.65,1.52,1.52,1,1,.66.66Z" style="fill:#606161"/></svg>